<?xml version="1.0" encoding="UTF-8" standalone="no"?>
<svg
   xmlns:dc="http://purl.org/dc/elements/1.1/"
   xmlns:cc="http://creativecommons.org/ns#"
   xmlns:rdf="http://www.w3.org/1999/02/22-rdf-syntax-ns#"
   xmlns:svg="http://www.w3.org/2000/svg"
   xmlns="http://www.w3.org/2000/svg"
   xmlns:sodipodi="http://sodipodi.sourceforge.net/DTD/sodipodi-0.dtd"
   xmlns:inkscape="http://www.inkscape.org/namespaces/inkscape"
   viewBox="0 0 1500 499.99999"
   version="1.1"
   id="svg48"
   sodipodi:docname="profile.svg"
   width="1500"
   height="500"
   inkscape:version="1.0.1 (3bc2e813f5, 2020-09-07)">
  <metadata
     id="metadata52">
    <rdf:RDF>
      <cc:Work
         rdf:about="">
        <dc:format>image/svg+xml</dc:format>
        <dc:type
           rdf:resource="http://purl.org/dc/dcmitype/StillImage" />
        <dc:title></dc:title>
      </cc:Work>
    </rdf:RDF>
  </metadata>
  <sodipodi:namedview
     pagecolor="#ffffff"
     bordercolor="#666666"
     borderopacity="1"
     objecttolerance="10"
     gridtolerance="10"
     guidetolerance="10"
     inkscape:pageopacity="0"
     inkscape:pageshadow="2"
     inkscape:window-width="1920"
     inkscape:window-height="1009"
     id="namedview50"
     showgrid="false"
     inkscape:zoom="0.69322992"
     inkscape:cx="586.5356"
     inkscape:cy="228.37325"
     inkscape:window-x="-8"
     inkscape:window-y="-8"
     inkscape:window-maximized="1"
     inkscape:current-layer="g46" />
  <defs
     id="defs4">
    <style
       id="style2">
        .logo {
          fill: #17a77b;
        }
        .text {
          fill: #232323;
        }
      </style>
  </defs>
  <g
     id="g46">
    <g
       id="g924"
       transform="matrix(1.7349913,0,0,1.7349913,250.03774,76.519044)">
      <path
         class="logo"
         d="m 130.07,59.72 c -1.19,-16.76 -7.64,-33.11 -20,-44.29 a 104.89,104.89 0 0 1 7.29,47.4 120.36,120.36 0 0 1 -8.44,35 c -0.69,1.75 -1.42,3.47 -2.18,5.19 -0.76,1.72 -1.57,3.43 -2.41,5.11 -0.84,1.68 -1.7,3.37 -2.61,5 -0.91,1.63 -1.84,3.29 -2.8,4.91 -0.96,1.62 -2,3.21 -3,4.79 -1,1.58 -2.1,3.14 -3.19,4.67 -1.09,1.53 -2.21,3 -3.37,4.55 -1.16,1.55 -2.33,3 -3.54,4.4 -1.21,1.4 -2.45,2.87 -3.71,4.27 -1.26,1.4 -2.56,2.77 -3.88,4.11 -1.32,1.34 -2.67,2.67 -4,4 -1.33,1.33 -2.77,2.56 -4.19,3.79 -1.42,1.23 -2.87,2.45 -4.35,3.62 -1.48,1.17 -3,2.33 -4.47,3.44 l -0.82,0.6 a 9.33,9.33 0 0 0 1,-2.19 c 0.56,-1.44 1,-2.9 1.57,-4.36 0.41,-1.13 0.85,-2.25 1.15,-3.42 0.48,-1.86 1.14,-3.64 1.63,-5.53 4,-15.17 5.23,-31.36 0.33,-46.45 A 49.3,49.3 0 0 0 62.8,90.89 50.39,50.39 0 0 0 58.17,83.78 66.56,66.56 0 0 0 48.5,73.53 C 46.33,71.65 44.11,69.85 41.85,68.1 39.94,66.59 38,65.22 36,63.86 c -1.37,-0.94 -2.8,-1.79 -4.21,-2.68 -2.32,-1.45 -4.64,-2.91 -7,-4.34 -2.36,-1.43 -4.88,-2.9 -7.32,-4.34 -1,-0.62 0.56,-0.62 1,-0.51 7.77,1.88 15.55,3.86 23.5,4.87 4.39,0.56 8.89,0.93 13.35,1.07 a 72.94,72.94 0 0 0 13.3,-0.41 c 0.84,-0.12 1.68,-0.28 2.51,-0.47 a 34.28,34.28 0 0 0 4.34,-1 c 1.28,-0.47 2.6,-0.84 3.86,-1.36 a 39.32,39.32 0 0 0 5.39,-2.7 33.08,33.08 0 0 0 6,-4.6 32.51,32.51 0 0 0 4.78,-5.8 30.52,30.52 0 0 0 3.73,-8.64 23.87,23.87 0 0 0 0.75,-5.72 A 26,26 0 0 0 93.98,9.8 24.72,24.72 0 0 0 88.11,4.6 24.3,24.3 0 0 0 82.52,1.8 C 81.16,1.38 79.77,1 78.37,0.72 L 78,0.63 77.61,0.55 77.23,0.48 76.85,0.41 76.46,0.34 76.08,0.27 75.7,0.21 75.31,0.14 c -0.11,0 -0.41,-0.07 -0.51,0 -0.1,0.07 0.4,0.38 0.51,0.44 l 0.31,0.2 0.3,0.18 0.29,0.19 0.29,0.2 0.27,0.2 v 0 a 23.59,23.59 0 0 1 3.84,3.65 21.19,21.19 0 0 1 3,4.73 21.92,21.92 0 0 1 1.17,3.2 18,18 0 0 1 0.81,3.58 52.41,52.41 0 0 1 0,6.14 17.9,17.9 0 0 1 -0.68,3.69 21,21 0 0 1 -1.91,4.69 21.47,21.47 0 0 1 -4.72,6.05 27.29,27.29 0 0 1 -3.41,2.42 14.29,14.29 0 0 1 -3.18,1.41 24.8,24.8 0 0 1 -3.41,0.79 11.64,11.64 0 0 1 -2.7,0.16 A 32.61,32.61 0 0 1 62,41.49 8.31,8.31 0 0 1 60.16,40.94 22.92,22.92 0 0 1 54.44,37.43 22.24,22.24 0 0 1 48,27.72 23,23 0 0 1 46.8,19 27.76,27.76 0 0 1 47.68,13.64 22.52,22.52 0 0 1 52.82,4.18 C 53.07,3.91 53.33,3.65 53.59,3.4 A 15.8,15.8 0 0 1 56.34,1.12 C 56.6,0.97 56.89,0.85 57.16,0.69 57.27,0.6 58,0.2 57.81,0 57.62,-0.2 57.46,0 57.39,0 l -0.51,0.1 c -0.34,0.09 -0.68,0.19 -1,0.26 -0.68,0.14 -1.36,0.28 -2,0.4 A 60,60 0 0 0 44.59,3.23 70.94,70.94 0 0 0 35.67,7 63.57,63.57 0 0 0 27.36,12.16 c -0.9,0.66 -1.78,1.35 -2.66,2 a 63.8,63.8 0 0 0 -6.14,5.6 67,67 0 0 0 -6.58,8 58.5,58.5 0 0 0 -4.73,7.86 c -0.73,1.49 -1.49,3 -2.11,4.52 -0.87,2.19 -1.64,4.43 -2.41,6.66 a 22.5,22.5 0 0 0 -0.66,2.44 c -0.23,1 -0.39,1.95 -0.63,2.91 A 35.7,35.7 0 0 0 0.52,57.49 C 0.31,59.76 0.05,62 0,64.24 A 64.26,64.26 0 0 0 0.18,71 c 0.21,2.26 0.54,4.51 0.89,6.75 a 48.56,48.56 0 0 0 1.5,6.55 c 0.31,1 0.63,2 1,2.91 0.53,1.55 1.05,3.1 1.67,4.61 0.62,1.51 1.21,2.7 1.88,4 1,2 2,4.14 3.21,6.11 1.62,2.67 3.36,5.27 5.16,7.82 a 117.26,117.26 0 0 0 7.23,9.25 c 3.46,4 7,7.89 10.72,11.7 1.79,1.85 3.63,3.65 5.43,5.49 2.46,2.54 4.92,5.08 7.35,7.66 2,2.05 3.88,4.13 5.76,6.25 a 87.06,87.06 0 0 1 7.57,9.75 c 0.15,0.21 0.28,0.42 0.42,0.64 a 43.83,43.83 0 0 1 3,5.26 38.64,38.64 0 0 1 2.12,5.7 37.86,37.86 0 0 1 1.18,6 c 0,0.32 0.07,0.63 0.1,0.94 a 279.23,279.23 0 0 0 36.26,-41.44 c 12.93,-18.11 23.88,-38.33 26.92,-60.37 a 81.73,81.73 0 0 0 0.52,-16.86 z"
         id="path6" />
      <path
         class="text"
         d="m 214.63,34.88 a 22.59,22.59 0 0 1 16.89,7 q 6.78,7 6.77,19.23 v 38.81 h -19 V 63.86 q 0,-5.56 -3.1,-8.54 a 11,11 0 0 0 -7.91,-3 11.39,11.39 0 0 0 -8.6,3.29 c -2.11,2.2 -3.16,5.44 -3.16,9.75 v 34.56 h -19 V 11.34 h 19 V 42.6 q 5.71,-7.72 18.11,-7.72 z"
         id="path8" />
      <path
         class="text"
         d="m 292.2,36.65 h 19 v 63.27 h -19 V 94 q -5.7,7.73 -18.1,7.72 a 22.59,22.59 0 0 1 -16.89,-7 q -6.76,-6.95 -6.77,-19.23 V 36.65 h 19 v 36.07 q 0,5.57 3.1,8.54 a 11,11 0 0 0 7.91,3 11.36,11.36 0 0 0 8.55,-3.32 q 3.15,-3.28 3.16,-9.74 z"
         id="path10" />
      <path
         class="text"
         d="m 396,34.88 q 10.89,0 17.46,7.15 6.57,7.15 6.58,19 V 99.92 H 401 v -37.2 a 11.41,11.41 0 0 0 -2.34,-7.59 8.34,8.34 0 0 0 -6.77,-2.79 8.86,8.86 0 0 0 -7.27,3.17 Q 382,58.68 382,64.24 v 35.68 h -19 v -37.2 a 11.41,11.41 0 0 0 -2.34,-7.59 8.34,8.34 0 0 0 -6.66,-2.79 8.9,8.9 0 0 0 -7.28,3.17 q -2.6,3.16 -2.59,8.73 v 35.68 h -19 V 36.65 h 19 v 5.82 q 5.19,-7.59 17,-7.59 11,0 16.57,8.35 5.73,-8.35 18.3,-8.35 z"
         id="path12" />
      <path
         class="text"
         d="m 479,36.65 h 19 V 99.92 H 479 V 94 q -6.71,7.73 -18.85,7.72 -12.53,0 -21.39,-9.68 -8.86,-9.68 -8.86,-23.72 0,-14.06 8.86,-23.73 8.86,-9.67 21.39,-9.68 12.15,0 18.85,7.72 z m -26,42.9 a 16.29,16.29 0 0 0 21.77,0 Q 479,75.38 479,68.29 479,61.2 474.8,57 A 16.29,16.29 0 0 0 453,57 q -4.17,4.18 -4.17,11.27 0,7.09 4.17,11.28 z"
         id="path14" />
      <path
         class="text"
         d="m 549,34.88 a 22.59,22.59 0 0 1 16.89,7 q 6.76,7 6.77,19.23 v 38.81 h -19 V 63.86 q 0,-5.56 -3.1,-8.54 a 11,11 0 0 0 -7.91,-3 11.36,11.36 0 0 0 -8.6,3.29 c -2.11,2.2 -3.17,5.44 -3.17,9.75 v 34.56 h -19 V 36.65 h 19 v 6 q 5.67,-7.77 18.12,-7.77 z"
         id="path16" />
      <path
         class="text"
         d="m 192.78,136.35 h 7.95 v 26.53 h -7.95 v -2.5 a 9.93,9.93 0 0 1 -7.91,3.24 11.72,11.72 0 0 1 -9,-4.06 15.2,15.2 0 0 1 0,-19.9 11.76,11.76 0 0 1 9,-4.06 9.93,9.93 0 0 1 7.91,3.24 z m -10.88,18 a 6.82,6.82 0 0 0 9.12,0 7.22,7.22 0 0 0 0,-9.45 6.82,6.82 0 0 0 -9.12,0 7.25,7.25 0 0 0 0,9.45 z"
         id="path18" />
      <path
         class="text"
         d="m 219.31,163.62 a 14,14 0 1 1 0,-28 13.79,13.79 0 0 1 7,1.86 13.14,13.14 0 0 1 5,4.94 l -7,4 a 5.22,5.22 0 0 0 -5.15,-3 5.78,5.78 0 0 0 -4.3,1.72 6.62,6.62 0 0 0 0,8.86 5.79,5.79 0 0 0 4.3,1.73 q 3.77,0 5.15,-3 l 7,4 a 13.05,13.05 0 0 1 -4.94,5 13.71,13.71 0 0 1 -7.06,1.89 z"
         id="path20" />
      <path
         class="text"
         d="m 246.69,163.62 a 14,14 0 1 1 0,-28 13.79,13.79 0 0 1 7,1.86 13.14,13.14 0 0 1 5,4.94 l -7,4 a 5.22,5.22 0 0 0 -5.15,-3 5.78,5.78 0 0 0 -4.3,1.72 6.62,6.62 0 0 0 0,8.86 5.79,5.79 0 0 0 4.3,1.73 q 3.76,0 5.15,-3 l 7,4 a 13.05,13.05 0 0 1 -4.94,5 13.71,13.71 0 0 1 -7.06,1.89 z"
         id="path22" />
      <path
         class="text"
         d="m 284,159.56 a 14.15,14.15 0 1 1 4.09,-9.95 13.45,13.45 0 0 1 -4.09,9.95 z m -14.33,-5.44 a 6.29,6.29 0 0 0 8.71,0 6.69,6.69 0 0 0 0,-9 6.29,6.29 0 0 0 -8.71,0 6.69,6.69 0 0 0 0,9 z"
         id="path24" />
      <path
         class="text"
         d="m 322.35,135.6 a 9.48,9.48 0 0 1 7.33,3 11.38,11.38 0 0 1 2.76,8 v 16.29 h -8 v -15.6 a 4.78,4.78 0 0 0 -1,-3.19 3.51,3.51 0 0 0 -2.83,-1.16 3.76,3.76 0 0 0 -3.06,1.32 5.66,5.66 0 0 0 -1.08,3.66 v 15 h -8 v -15.6 a 4.83,4.83 0 0 0 -1,-3.19 3.54,3.54 0 0 0 -2.84,-1.16 3.72,3.72 0 0 0 -3.05,1.32 5.61,5.61 0 0 0 -1.09,3.66 v 15 h -8 v -26.6 h 8 v 2.44 q 2.17,-3.19 7.11,-3.19 a 7.8,7.8 0 0 1 7,3.51 q 2.51,-3.51 7.75,-3.51 z"
         id="path26" />
      <path
         class="text"
         d="m 353.77,135.6 a 11.72,11.72 0 0 1 9,4.06 15.17,15.17 0 0 1 0,19.9 11.69,11.69 0 0 1 -9,4.06 9.9,9.9 0 0 1 -7.91,-3.24 v 13.11 h -8 v -37.14 h 8 v 2.49 a 9.9,9.9 0 0 1 7.91,-3.24 z m -6.13,18.74 a 6.75,6.75 0 0 0 9.07,0 7.16,7.16 0 0 0 0,-9.45 6.75,6.75 0 0 0 -9.07,0 7.16,7.16 0 0 0 0,9.45 z"
         id="path28" />
      <path
         class="text"
         d="m 371,162.88 v -38.74 h 8 v 38.74 z"
         id="path30" />
      <path
         class="text"
         d="m 392.1,132.61 a 4.73,4.73 0 1 1 1.41,-3.37 4.61,4.61 0 0 1 -1.41,3.37 z m -7.35,30.27 v -26.53 h 8 v 26.53 z"
         id="path32" />
      <path
         class="text"
         d="m 405.82,144.09 c 0,0.53 0.45,1 1.35,1.3 a 31.91,31.91 0 0 0 3.27,1 30.75,30.75 0 0 1 3.82,1.3 7.74,7.74 0 0 1 3.26,2.63 7.52,7.52 0 0 1 1.35,4.59 7.4,7.4 0 0 1 -3.18,6.5 13.45,13.45 0 0 1 -7.85,2.2 q -8.38,0 -11.41,-6.31 l 6.9,-3.93 a 4.31,4.31 0 0 0 4.51,3.13 c 1.91,0 2.86,-0.55 2.86,-1.64 0,-0.53 -0.45,-1 -1.35,-1.33 a 31.83,31.83 0 0 0 -3.26,-1 26.34,26.34 0 0 1 -3.83,-1.32 8.18,8.18 0 0 1 -3.26,-2.61 6.81,6.81 0 0 1 -1.35,-4.29 7.6,7.6 0 0 1 3,-6.42 11.85,11.85 0 0 1 7.4,-2.29 12.43,12.43 0 0 1 6,1.46 11.25,11.25 0 0 1 4.36,4.22 l -6.8,3.66 a 3.92,3.92 0 0 0 -3.55,-2.33 c -1.5,0 -2.24,0.49 -2.24,1.48 z"
         id="path34" />
      <path
         class="text"
         d="m 438.4,135.6 a 9.49,9.49 0 0 1 7.08,2.92 c 1.9,1.95 2.84,4.64 2.84,8.07 v 16.29 h -8 v -15.12 a 4.75,4.75 0 0 0 -1.3,-3.59 4.58,4.58 0 0 0 -3.31,-1.24 4.77,4.77 0 0 0 -3.61,1.38 5.65,5.65 0 0 0 -1.33,4.08 v 14.49 h -8 v -37.15 h 8 v 13.11 q 2.42,-3.24 7.63,-3.24 z"
         id="path36" />
      <path
         class="text"
         d="m 483.5,135.6 a 9.48,9.48 0 0 1 7.33,3 11.38,11.38 0 0 1 2.76,8 v 16.29 h -8 v -15.6 a 4.78,4.78 0 0 0 -1,-3.19 3.51,3.51 0 0 0 -2.83,-1.16 3.76,3.76 0 0 0 -3.06,1.32 5.66,5.66 0 0 0 -1.08,3.66 v 15 h -8 v -15.6 a 4.83,4.83 0 0 0 -1,-3.19 3.54,3.54 0 0 0 -2.84,-1.16 3.72,3.72 0 0 0 -3.05,1.32 5.61,5.61 0 0 0 -1.09,3.66 v 15 h -8 v -26.6 h 8 v 2.44 q 2.17,-3.19 7.11,-3.19 a 7.8,7.8 0 0 1 6.95,3.51 q 2.56,-3.51 7.8,-3.51 z"
         id="path38" />
      <path
         class="text"
         d="m 506.16,152.8 q 1.38,3.7 6.37,3.71 a 6.56,6.56 0 0 0 5.09,-2 l 6.37,3.67 q -3.93,5.46 -11.57,5.46 -6.67,0 -10.69,-4 a 14,14 0 0 1 10.11,-24 12.82,12.82 0 0 1 9.63,4 13.9,13.9 0 0 1 3.85,10 15.33,15.33 0 0 1 -0.32,3.19 z m -0.16,-6 h 11.41 a 5.28,5.28 0 0 0 -5.62,-4.19 q -4.62,0.05 -5.79,4.24 z"
         id="path40" />
      <path
         class="text"
         d="m 545.37,135.6 a 9.51,9.51 0 0 1 7.09,2.92 q 2.84,2.92 2.84,8.07 v 16.29 h -8 v -15.12 a 4.78,4.78 0 0 0 -1.3,-3.59 4.62,4.62 0 0 0 -3.32,-1.24 4.78,4.78 0 0 0 -3.61,1.38 5.69,5.69 0 0 0 -1.32,4.08 v 14.49 h -8 v -26.53 h 8 v 2.49 q 2.42,-3.24 7.62,-3.24 z"
         id="path42" />
      <path
         class="text"
         d="m 576.31,144 h -5.47 v 9.39 a 1.89,1.89 0 0 0 1.28,2 12.46,12.46 0 0 0 4.19,0.26 v 7.22 q -7.59,0.8 -10.51,-1.46 c -1.94,-1.5 -2.92,-4.18 -2.92,-8 V 144 h -4.24 v -7.64 h 4.24 v -5 l 8,-2.39 v 7.43 h 5.47 z"
         id="path44" />
    </g>
  </g>
</svg>
